<?xml version="1.0" encoding="UTF-8" standalone="no"?>
<svg
   xmlns:dc="http://purl.org/dc/elements/1.1/"
   xmlns:cc="http://creativecommons.org/ns#"
   xmlns:rdf="http://www.w3.org/1999/02/22-rdf-syntax-ns#"
   xmlns:svg="http://www.w3.org/2000/svg"
   xmlns="http://www.w3.org/2000/svg"
   xmlns:xlink="http://www.w3.org/1999/xlink"
   width="230.673mm"
   height="44.34mm"
   viewBox="0 0 230.673 44.34"
   version="1.1"
   id="svg8">
  <defs
     id="defs2">
    <linearGradient
       id="linearGradient1134">
      <stop
         style="stop-color:#f9f9f9;stop-opacity:0.19601327"
         offset="0"
         id="stop1130" />
      <stop
         style="stop-color:#ffffff;stop-opacity:1"
         offset="1"
         id="stop1132" />
    </linearGradient>
    <linearGradient
       id="linearGradient1001">
      <stop
         style="stop-color:#f2f2f2;stop-opacity:1"
         offset="0"
         id="stop997" />
      <stop
         style="stop-color:#c9c9c9;stop-opacity:1"
         offset="1"
         id="stop999" />
    </linearGradient>
    <filter
       style="color-interpolation-filters:sRGB"
       id="filter985"
       x="-0.02754527"
       width="1.0550905"
       y="-0.18647005"
       height="1.3729401">
      <feGaussianBlur
         stdDeviation="2.5092421"
         id="feGaussianBlur987" />
    </filter>
    <linearGradient
       xlink:href="#linearGradient1001"
       id="linearGradient1003"
       x1="52.160713"
       y1="59.720234"
       x2="376.84225"
       y2="61.23214"
       gradientUnits="userSpaceOnUse" />
    <linearGradient
       xlink:href="#linearGradient1134"
       id="linearGradient1085"
       x1="291.94318"
       y1="270.66443"
       x2="322.12799"
       y2="162.85098"
       gradientUnits="userSpaceOnUse" />
    <linearGradient
       xlink:href="#linearGradient1134"
       id="linearGradient1128"
       x1="512.89355"
       y1="314.44504"
       x2="544.33929"
       y2="175.17412"
       gradientUnits="userSpaceOnUse" />
  </defs>
  <metadata
     id="metadata5">
    <rdf:RDF>
      <cc:Work
         rdf:about="">
        <dc:format>image/svg+xml</dc:format>
        <dc:type
           rdf:resource="http://purl.org/dc/dcmitype/StillImage" />
        <dc:title></dc:title>
      </cc:Work>
    </rdf:RDF>
  </metadata>
  <g
     id="layer1">
    <g
       id="g1151"
       transform="translate(-0.78139039,-40.301165)">
      <text
         xml:space="preserve"
         style="font-size:50.8px;line-height:1.25;font-family:'New Super Mario Font U';-inkscape-font-specification:'New Super Mario Font U';fill:#0000ff;stroke:#000000;stroke-width:2.165;stroke-miterlimit:4;stroke-dasharray:none;stroke-opacity:1;filter:url(#filter985)"
         x="6.8035717"
         y="78.619049"
         id="text843"><tspan
           id="tspan841"
           x="6.8035717"
           y="78.619049"
           style="fill:#0000ff;stroke:#000000;stroke-width:2.165;stroke-miterlimit:4;stroke-dasharray:none;stroke-opacity:1">BLUEO110</tspan></text>
      <g
         aria-label="BLUEO110"
         id="text839"
         style="font-size:50.8px;line-height:1.25;font-family:'New Super Mario Font U';-inkscape-font-specification:'New Super Mario Font U';fill:#0000ff;stroke:#0000ff;stroke-width:4.465;stroke-miterlimit:4;stroke-dasharray:none;stroke-opacity:1">
        <path
           d="m 26.176032,46.348151 q 8.880078,6.449219 10.343555,7.962305 -2.852539,8.433593 -2.852539,8.706445 0.694531,0.694531 3.745508,4.787304 v 0.297657 q -4.613672,8.135937 -5.382617,9.004101 L 11.466853,78.619049 Q 10.995564,76.783502 6.8035717,50.093659 Z m -8.111132,7.664648 0.892968,8.855274 q 6.548438,-1.5875 6.598047,-1.810742 0.297656,-0.744141 1.364258,-4.81211 z m 3.596679,12.005469 H 20.02447 q -0.322461,0.04961 -0.322461,0.297656 -0.148828,3.22461 -0.148828,4.787305 -0.148828,0.79375 -0.148828,0.917773 l 7.813476,-1.215429 -0.148828,-0.744141 v -0.892969 q 0,-1.066601 -0.148828,-3.299023 -3.54707,0.148828 -5.258594,0.148828 z"
           style="fill:#0000ff;stroke:#0000ff;stroke-width:4.465;stroke-miterlimit:4;stroke-dasharray:none;stroke-opacity:1"
           id="path1035" />
        <path
           d="m 52.543415,46.323346 q 0,0.173633 0.148828,0.173633 0.173633,5.035352 0.520899,22.522656 h 0.148828 l 14.808398,-5.208984 q 0,0.173633 0.173633,0.173633 l -0.496094,12.451953 q 0,0.322461 -23.043554,2.182812 Q 44.283454,76.014557 39.91783,47.6628 41.8774,47.340339 52.543415,46.323346 Z"
           style="fill:#0000ff;stroke:#0000ff;stroke-width:4.465;stroke-miterlimit:4;stroke-dasharray:none;stroke-opacity:1"
           id="path1037" />
        <path
           d="m 71.171733,46.348151 q 10.26914,2.158008 10.26914,2.480469 -0.669726,12.27832 -1.314648,21.00957 0.992187,0 7.441406,0.669726 2.480469,-22.001757 2.80293,-22.001757 9.10332,1.488281 9.10332,1.810742 -2.80293,23.76289 -3.150196,24.159765 -1.389062,1.141016 -4.613671,4.142383 -14.733985,-0.446484 -14.733985,-0.992187 l -6.126757,-7.118946 v -8.780859 q 0,-5.084961 0.173633,-15.205273 0.148828,0 0.148828,-0.173633 z"
           style="fill:#0000ff;stroke:#0000ff;stroke-width:4.465;stroke-miterlimit:4;stroke-dasharray:none;stroke-opacity:1"
           id="path1039" />
        <path
           d="m 106.4688,46.348151 q 24.58145,2.902149 24.58145,3.249414 L 128.669,58.30401 q -11.6086,-3.075781 -12.47676,-3.423047 0,0.223243 -2.55488,5.630664 h 0.17363 q 5.18418,-0.32246 11.26133,-1.016992 l 0.17363,0.347266 q -1.01699,5.754687 -1.53789,7.838281 l -9.5498,-1.364258 q 0.14882,2.827735 0.14882,4.266406 v 0.868164 l 0.17364,0.347266 q 3.175,-0.347266 12.82402,-1.041797 0.32246,1.537891 1.19063,7.689453 -0.17364,0 -0.17364,0.173633 -22.49785,-1.190625 -22.86992,-1.537891 l -3.59668,-10.244335 q 4.09277,-19.074805 4.61367,-20.488672 z"
           style="fill:#0000ff;stroke:#0000ff;stroke-width:4.465;stroke-miterlimit:4;stroke-dasharray:none;stroke-opacity:1"
           id="path1041" />
        <path
           d="m 144.0231,46.348151 q 10.86445,2.852539 11.0877,3.299024 0,0.248046 5.25859,9.921874 -4.63848,15.527735 -5.25859,16.643945 l -11.23653,2.406055 q -9.05371,-5.010547 -9.62422,-5.705078 -0.29765,-3.497461 -1.04179,-19.670117 8.55761,-5.705078 10.81484,-6.895703 z m 1.93477,8.557617 -4.63848,4.812109 q 0.59531,7.491016 0.59531,9.15293 0.17364,0 3.00137,2.083594 3.74551,-0.818555 3.74551,-1.190625 l 2.85254,-9.748242 q -1.14102,-3.472656 -1.93477,-3.472656 z"
           style="fill:#0000ff;stroke:#0000ff;stroke-width:4.465;stroke-miterlimit:4;stroke-dasharray:none;stroke-opacity:1"
           id="path1043" />
        <path
           d="m 172.5981,48.654987 q 8.43359,0.942578 8.43359,1.190625 0.0992,18.553906 0.0992,28.376562 v 0.198438 l -0.0992,0.198437 -8.73125,-0.297656 q 0,-0.09922 -0.0992,-0.09922 0.59532,-16.594336 0.59532,-17.660937 l -2.97657,2.877344 q -0.24804,-0.148829 -6.94531,-7.342188 5.2586,-4.167187 9.72344,-7.441406 z"
           style="fill:#0000ff;stroke:#0000ff;stroke-width:4.465;stroke-miterlimit:4;stroke-dasharray:none;stroke-opacity:1"
           id="path1045" />
        <path
           d="m 193.31001,48.654987 q 8.4336,0.942578 8.4336,1.190625 0.0992,18.553906 0.0992,28.376562 v 0.198438 l -0.0992,0.198437 -8.73125,-0.297656 q 0,-0.09922 -0.0992,-0.09922 0.59531,-16.594336 0.59531,-17.660937 l -2.97656,2.877344 q -0.24805,-0.148829 -6.94531,-7.342188 5.25859,-4.167187 9.72343,-7.441406 z"
           style="fill:#0000ff;stroke:#0000ff;stroke-width:4.465;stroke-miterlimit:4;stroke-dasharray:none;stroke-opacity:1"
           id="path1047" />
        <path
           d="m 210.74771,48.853425 h 1.5875 q 0,0.297656 7.54062,1.587499 1.68672,0.223243 1.68672,0.992188 3.57188,6.796484 3.57188,7.242969 0,1.736328 0.29765,10.814843 -2.30683,7.242969 -2.77812,7.242969 -2.82774,1.885156 -3.175,1.885156 h -10.12031 q -3.96875,-5.109765 -3.96875,-6.052344 l -1.09141,-5.953124 q 0,-0.272852 1.88516,-4.960938 l -0.0992,-0.198437 q 1.0914,-2.80293 4.2664,-11.90625 0.27286,-0.694531 0.39688,-0.694531 z m 3.67109,9.227343 q -3.67109,7.689453 -3.77031,8.135938 0.37207,0.37207 3.57188,4.960937 3.12539,-1.488281 3.57187,-1.5875 -0.29766,-6.920508 -0.29766,-8.235156 -1.19062,-1.612305 -2.97656,-3.274219 z"
           style="fill:#0000ff;stroke:#0000ff;stroke-width:4.465;stroke-miterlimit:4;stroke-dasharray:none;stroke-opacity:1"
           id="path1049" />
      </g>
      <text
         xml:space="preserve"
         style="font-size:50.8px;line-height:1.25;font-family:'New Super Mario Font U';-inkscape-font-specification:'New Super Mario Font U';fill:url(#linearGradient1003);fill-opacity:1;stroke-width:0.264583"
         x="6.8035717"
         y="78.619049"
         id="text835"><tspan
           id="tspan833"
           x="6.8035717"
           y="78.619049"
           style="fill:url(#linearGradient1003);fill-opacity:1;stroke-width:0.264583">BLUEO110</tspan></text>
      <path
         id="path1093"
         style="font-size:50.8px;line-height:1.25;font-family:'New Super Mario Font U';-inkscape-font-specification:'New Super Mario Font U';fill:url(#linearGradient1128);fill-opacity:1;stroke-width:0.999999"
         d="m 544.33984,175.17383 c -5.6875,3 -19.31251,11.6875 -40.875,26.0625 1.875,40.75 3.18752,65.53125 3.9375,74.34375 1.43751,1.75 13.56251,8.9375 36.375,21.5625 l 38.30274,-8.20117 21.57031,-68.35938 c -11.43479,-21.07694 -17.4043,-32.35884 -17.4043,-32.93945 -0.56252,-1.125 -14.53125,-5.28125 -41.90625,-12.46875 z m -57.97851,10.55273 -10.08594,31.96289 c 3.32933,0.88707 6.25151,1.66989 10.0332,2.67188 l 9,-32.90625 c 0,-0.26608 -3.21979,-0.86715 -8.94726,-1.72852 z m 65.29101,21.79102 13.6875,6.1875 c 2,0 4.43749,4.375 7.3125,13.125 l -10.78125,36.84375 c 0,0.9375 -4.71874,2.4375 -14.15625,4.5 -7.12499,-5.25 -10.90623,-7.875 -11.34375,-7.875 0,-4.1875 -0.75,-15.71875 -2.25,-34.59375 z m -78.58398,20.33398 -8.67578,27.49414 3.16601,0.45313 c 1.2575,-5.02997 3.10487,-14.42642 5.50977,-27.94727 z m 8.08398,39.57227 c -8.02068,0.57732 -14.82107,1.09017 -21.0664,1.57226 l -8.30664,26.32032 c 9.85929,0.5627 20.59262,1.15807 33.21679,1.82617 0,-0.4375 0.21874,-0.65625 0.65625,-0.65625 -2.18751,-15.5 -3.6875,-25.1875 -4.5,-29.0625 z"
         transform="scale(0.26458333)" />
      <path
         id="path1052"
         style="font-size:50.8px;line-height:1.25;font-family:'New Super Mario Font U';-inkscape-font-specification:'New Super Mario Font U';fill:url(#linearGradient1085);fill-opacity:1;stroke-width:0.999999"
         d="m 268.99609,175.17383 c 0,0.4375 -0.1875,0.65625 -0.5625,0.65625 -0.4375,25.5 -0.65625,44.65625 -0.65625,57.46875 v 33.1875 l 23.15625,26.90625 c 0,1.36587 18.36054,2.60738 54.99414,3.72656 l 27.76758,-87.98828 c 0.76022,-6.3521 1.41973,-11.75253 2.26953,-18.95703 0,-0.8125 -11.46875,-3.09375 -34.40625,-6.84375 -0.8125,0 -4.34375,27.71875 -10.59375,83.15625 -16.25,-1.6875 -25.625,-2.53125 -28.125,-2.53125 1.625,-22 3.28126,-48.46875 4.96875,-79.40625 0,-0.8125 -12.9375,-3.9375 -38.8125,-9.375 z m -11.34375,66 -25.15234,8.84765 -13.55859,42.9668 c 24.83297,-2.18867 37.49218,-3.56434 37.49218,-4.0957 l 1.875,-47.0625 c -0.4375,0 -0.65625,-0.21875 -0.65625,-0.65625 z"
         transform="scale(0.26458333)" />
    </g>
  </g>
</svg>
