<svg xmlns="http://www.w3.org/2000/svg" xmlns:xlink="http://www.w3.org/1999/xlink" width="871.835" height="167.584" viewBox="0 0 230.673 44.34" xmlns:v="https://vecta.io/nano"><defs><linearGradient id="A" gradientUnits="userSpaceOnUse"><stop offset="0" stop-color="#f9f9f9" stop-opacity=".196"/><stop offset="1" stop-color="#fff"/></linearGradient><filter id="B" x="-.028" width="1.055" y="-.186" height="1.373" color-interpolation-filters="sRGB"><feGaussianBlur stdDeviation="2.509"/></filter><linearGradient id="C" x1="52.161" y1="59.72" x2="376.842" y2="61.232" gradientUnits="userSpaceOnUse"><stop offset="0" stop-color="#f2f2f2"/><stop offset="1" stop-color="#c9c9c9"/></linearGradient><linearGradient xlink:href="#A" id="D" x1="291.943" y1="270.664" x2="322.128" y2="162.851"/><linearGradient xlink:href="#A" id="E" x1="512.894" y1="314.445" x2="544.339" y2="175.174"/><path id="F" d="M172.598 48.655q8.434.943 8.434 1.191.099 18.554.099 28.377v.198l-.099.198-8.731-.298q0-.099-.099-.099.595-16.594.595-17.661l-2.977 2.877q-.248-.149-6.945-7.342 5.259-4.167 9.723-7.441z"/></defs><g transform="translate(-.781 -40.301)"><text xml:space="preserve" x="6.804" y="78.619" font-size="50.8" font-family="New Super Mario Font U" fill="#00f" stroke="#000" filter="url(#B)"><tspan x="6.804" y="78.619" stroke-width="2.165">BLUEO110</tspan></text><g fill="#00f" stroke="#00f" stroke-width="4.465"><path d="M26.176 46.348q8.88 6.449 10.344 7.962-2.853 8.434-2.853 8.706.695.695 3.746 4.787v.298q-4.614 8.136-5.383 9.004l-20.563 1.513q-.471-1.836-4.663-28.525zm-8.111 7.665l.893 8.855q6.548-1.587 6.598-1.811.298-.744 1.364-4.812zm3.597 12.005h-1.637q-.322.05-.322.298-.149 3.225-.149 4.787-.149.794-.149.918l7.813-1.215-.149-.744v-.893q0-1.067-.149-3.299-3.547.149-5.259.149zm30.881-19.695q0 .174.149.174.174 5.035.521 22.523h.149l14.808-5.209q0 .174.174.174l-.496 12.452q0 .322-23.044 2.183-.521-2.604-4.887-30.956 1.96-.322 12.626-1.339zm18.629.025q10.269 2.158 10.269 2.48-.67 12.278-1.315 21.01.992 0 7.441.67 2.48-22.002 2.803-22.002 9.103 1.488 9.103 1.811-2.803 23.763-3.15 24.16-1.389 1.141-4.614 4.142-14.734-.446-14.734-.992l-6.127-7.119v-8.781q0-5.085.174-15.205.149 0 .149-.174zm35.297 0q24.581 2.902 24.581 3.249l-2.381 8.706q-11.609-3.076-12.477-3.423 0 .223-2.555 5.631h.174q5.184-.322 11.261-1.017l.174.347q-1.017 5.755-1.538 7.838l-9.55-1.364q.149 2.828.149 4.266v.868l.174.347q3.175-.347 12.824-1.042.322 1.538 1.191 7.689-.174 0-.174.174-22.498-1.191-22.87-1.538l-3.597-10.244q4.093-19.075 4.614-20.489zm37.554 0q10.864 2.853 11.088 3.299 0 .248 5.259 9.922-4.638 15.528-5.259 16.644l-11.237 2.406q-9.054-5.011-9.624-5.705-.298-3.497-1.042-19.67 8.558-5.705 10.815-6.896zm1.935 8.558l-4.638 4.812q.595 7.491.595 9.153.174 0 3.001 2.084 3.746-.819 3.746-1.191l2.853-9.748q-1.141-3.473-1.935-3.473z"/><use xlink:href="#F"/><use xlink:href="#F" x="20.712"/><path d="M210.748 48.853h1.588q0 .298 7.541 1.587 1.687.223 1.687.992 3.572 6.796 3.572 7.243 0 1.736.298 10.815-2.307 7.243-2.778 7.243-2.828 1.885-3.175 1.885h-10.12q-3.969-5.11-3.969-6.052l-1.091-5.953q0-.273 1.885-4.961l-.099-.198q1.091-2.803 4.266-11.906.273-.695.397-.695zm3.671 9.227q-3.671 7.689-3.77 8.136.372.372 3.572 4.961 3.125-1.488 3.572-1.588-.298-6.921-.298-8.235-1.191-1.612-2.977-3.274z"/></g><text xml:space="preserve" x="6.804" y="78.619" font-size="50.8" font-family="New Super Mario Font U" fill="url(#C)"><tspan x="6.804" y="78.619">BLUEO110</tspan></text><g transform="scale(.26458333)"><path d="M544.34 175.174c-5.687 3-19.313 11.688-40.875 26.063l3.938 74.344c1.438 1.75 13.563 8.938 36.375 21.563l38.303-8.201 21.57-68.359-17.404-32.939c-.563-1.125-14.531-5.281-41.906-12.469zm-57.979 10.553l-10.086 31.963 10.033 2.672 9-32.906c0-.266-3.22-.867-8.947-1.729zm65.291 21.791l13.688 6.188c2 0 4.437 4.375 7.313 13.125l-10.781 36.844c0 .938-4.719 2.438-14.156 4.5-7.125-5.25-10.906-7.875-11.344-7.875 0-4.187-.75-15.719-2.25-34.594zm-78.584 20.334l-8.676 27.494 3.166.453c1.257-5.03 3.105-14.426 5.51-27.947zm8.084 39.572l-21.066 1.572-8.307 26.32 33.217 1.826c0-.437.219-.656.656-.656l-4.5-29.062z" fill="url(#E)"/><path d="M268.996 175.174c0 .438-.187.656-.562.656l-.656 57.469v33.188l23.156 26.906c0 1.366 18.361 2.607 54.994 3.727l27.768-87.988 2.27-18.957c0-.812-11.469-3.094-34.406-6.844-.812 0-4.344 27.719-10.594 83.156l-28.125-2.531 4.969-79.406c0-.812-12.937-3.937-38.812-9.375zm-11.344 66l-25.152 8.848-13.559 42.967c24.833-2.189 37.492-3.564 37.492-4.096l1.875-47.062c-.437 0-.656-.219-.656-.656z" fill="url(#D)"/></g></g></svg>
