<?xml version="1.0" encoding="UTF-8" standalone="no"?>
<svg
   xmlns:dc="http://purl.org/dc/elements/1.1/"
   xmlns:cc="http://creativecommons.org/ns#"
   xmlns:rdf="http://www.w3.org/1999/02/22-rdf-syntax-ns#"
   xmlns:svg="http://www.w3.org/2000/svg"
   xmlns="http://www.w3.org/2000/svg"
   xmlns:xlink="http://www.w3.org/1999/xlink"
   xmlns:sodipodi="http://sodipodi.sourceforge.net/DTD/sodipodi-0.dtd"
   xmlns:inkscape="http://www.inkscape.org/namespaces/inkscape"
   width="230.673mm"
   height="44.34mm"
   viewBox="0 0 230.673 44.34"
   version="1.1"
   id="svg8"
   sodipodi:docname="blueo110 logo.svg"
   inkscape:version="1.0.1 (3bc2e813f5, 2020-09-07)">
  <sodipodi:namedview
     pagecolor="#ffffff"
     bordercolor="#666666"
     borderopacity="1"
     objecttolerance="10"
     gridtolerance="10"
     guidetolerance="10"
     inkscape:pageopacity="0"
     inkscape:pageshadow="2"
     inkscape:window-width="1366"
     inkscape:window-height="705"
     id="namedview864"
     showgrid="false"
     inkscape:zoom="0.85796053"
     inkscape:cx="424.97244"
     inkscape:cy="158.26746"
     inkscape:window-x="-8"
     inkscape:window-y="-8"
     inkscape:window-maximized="1"
     inkscape:current-layer="svg8" />
  <defs
     id="defs2">
    <linearGradient
       id="linearGradient1134">
      <stop
         style="stop-color:#f9f9f9;stop-opacity:0.19601327"
         offset="0"
         id="stop1130" />
      <stop
         style="stop-color:#ffffff;stop-opacity:1"
         offset="1"
         id="stop1132" />
    </linearGradient>
    <linearGradient
       id="linearGradient1001">
      <stop
         style="stop-color:#f2f2f2;stop-opacity:1"
         offset="0"
         id="stop997" />
      <stop
         style="stop-color:#c9c9c9;stop-opacity:1"
         offset="1"
         id="stop999" />
    </linearGradient>
    <filter
       style="color-interpolation-filters:sRGB"
       id="filter985"
       x="-0.02754527"
       width="1.0550905"
       y="-0.18647005"
       height="1.3729401">
      <feGaussianBlur
         stdDeviation="2.5092421"
         id="feGaussianBlur987" />
    </filter>
    <linearGradient
       xlink:href="#linearGradient1001"
       id="linearGradient1003"
       x1="52.160713"
       y1="59.720234"
       x2="376.84225"
       y2="61.23214"
       gradientUnits="userSpaceOnUse"
       gradientTransform="translate(-0.78139039,-40.301165)" />
    <linearGradient
       xlink:href="#linearGradient1134"
       id="linearGradient1085"
       x1="291.94318"
       y1="270.66443"
       x2="322.12799"
       y2="162.85098"
       gradientUnits="userSpaceOnUse"
       gradientTransform="matrix(0.26458333,0,0,0.26458333,-0.78139039,-40.301165)" />
    <linearGradient
       xlink:href="#linearGradient1134"
       id="linearGradient1128"
       x1="512.89355"
       y1="314.44504"
       x2="544.33929"
       y2="175.17412"
       gradientUnits="userSpaceOnUse"
       gradientTransform="matrix(0.26458333,0,0,0.26458333,-0.78139039,-40.301165)" />
  </defs>
  <metadata
     id="metadata5">
    <rdf:RDF>
      <cc:Work
         rdf:about="">
        <dc:format>image/svg+xml</dc:format>
        <dc:type
           rdf:resource="http://purl.org/dc/dcmitype/StillImage" />
        <dc:title />
      </cc:Work>
    </rdf:RDF>
  </metadata>
  <g
     aria-label="BLUEO110"
     id="text843"
     style="font-size:50.8px;line-height:1.25;font-family:'New Super Mario Font U';-inkscape-font-specification:'New Super Mario Font U';fill:#000000;fill-opacity:1;stroke:#000000;stroke-width:2.165;stroke-miterlimit:4;stroke-dasharray:none;stroke-opacity:1;filter:url(#filter985)">
    <path
       d="m 25.394642,6.0469846 q 8.880078,6.4492184 10.343555,7.9623044 -2.852539,8.433594 -2.852539,8.706445 0.694531,0.694532 3.745507,4.787305 v 0.297656 q -4.613671,8.135938 -5.382617,9.004102 L 10.685463,38.317883 Q 10.214174,36.482336 6.0221815,9.7924923 Z m -8.111133,7.6646484 0.892969,8.855273 q 6.548438,-1.5875 6.598047,-1.810742 0.297656,-0.744141 1.364258,-4.812109 z m 3.59668,12.005468 H 19.24308 q -0.322461,0.04961 -0.322461,0.297657 -0.148828,3.224609 -0.148828,4.787304 -0.148828,0.79375 -0.148828,0.917774 l 7.813476,-1.21543 -0.148828,-0.744141 v -0.892968 q 0,-1.066602 -0.148828,-3.299024 -3.54707,0.148828 -5.258594,0.148828 z"
       style="fill:#000000;fill-opacity:1;stroke:#000000;stroke-width:2.165;stroke-miterlimit:4;stroke-dasharray:none;stroke-opacity:1"
       id="path897" />
    <path
       d="m 51.762025,6.0221799 q 0,0.1736328 0.148828,0.1736328 0.173633,5.0353513 0.520899,22.5226563 h 0.148828 l 14.808398,-5.208985 q 0,0.173633 0.173633,0.173633 L 67.066517,36.13507 q 0,0.322461 -23.043554,2.182813 Q 43.502064,35.71339 39.136439,7.361633 41.09601,7.0391721 51.762025,6.0221799 Z"
       style="fill:#000000;fill-opacity:1;stroke:#000000;stroke-width:2.165;stroke-miterlimit:4;stroke-dasharray:none;stroke-opacity:1"
       id="path899" />
    <path
       d="m 70.390343,6.0469846 q 10.26914,2.1580078 10.26914,2.4804687 -0.669727,12.2783197 -1.314648,21.0095697 0.992187,0 7.441406,0.669727 2.480468,-22.0017576 2.802929,-22.0017576 9.103321,1.4882812 9.103321,1.8107426 -2.80293,23.76289 -3.150196,24.159765 -1.389062,1.141015 -4.613672,4.142383 Q 76.194639,37.871398 76.194639,37.325695 L 70.067882,30.20675 v -8.780859 q 0,-5.084961 0.173632,-15.2052736 0.148829,0 0.148829,-0.1736328 z"
       style="fill:#000000;fill-opacity:1;stroke:#000000;stroke-width:2.165;stroke-miterlimit:4;stroke-dasharray:none;stroke-opacity:1"
       id="path901" />
    <path
       d="m 105.68741,6.0469846 q 24.58145,2.9021484 24.58145,3.249414 l -2.38125,8.7064454 q -11.6086,-3.075781 -12.47676,-3.423047 0,0.223242 -2.55488,5.630664 h 0.17363 q 5.18418,-0.322461 11.26133,-1.016992 l 0.17363,0.347265 q -1.01699,5.754688 -1.53789,7.838282 l -9.5498,-1.364258 q 0.14882,2.827734 0.14882,4.266406 v 0.868164 l 0.17364,0.347266 q 3.175,-0.347266 12.82402,-1.041797 0.32246,1.53789 1.19062,7.689453 -0.17363,0 -0.17363,0.173633 -22.49785,-1.190625 -22.86992,-1.537891 l -3.59668,-10.244336 q 4.09277,-19.0748042 4.61367,-20.4886714 z"
       style="fill:#000000;fill-opacity:1;stroke:#000000;stroke-width:2.165;stroke-miterlimit:4;stroke-dasharray:none;stroke-opacity:1"
       id="path903" />
    <path
       d="m 143.24171,6.0469846 q 10.86445,2.852539 11.0877,3.2990234 0,0.2480468 5.25859,9.921875 -4.63848,15.527734 -5.25859,16.643945 l -11.23653,2.406055 q -9.05371,-5.010547 -9.62422,-5.705079 -0.29765,-3.49746 -1.04179,-19.670116 8.55761,-5.7050784 10.81484,-6.8957034 z m 1.93477,8.5576174 -4.63848,4.812109 q 0.59531,7.491015 0.59531,9.152929 0.17364,0 3.00137,2.083594 3.74551,-0.818554 3.74551,-1.190625 l 2.85254,-9.748242 q -1.14102,-3.472656 -1.93477,-3.472656 z"
       style="fill:#000000;fill-opacity:1;stroke:#000000;stroke-width:2.165;stroke-miterlimit:4;stroke-dasharray:none;stroke-opacity:1"
       id="path905" />
    <path
       d="m 171.81671,8.3538205 q 8.43359,0.9425781 8.43359,1.190625 0.0992,18.5539055 0.0992,28.3765625 v 0.198437 l -0.0992,0.198438 -8.73125,-0.297657 q 0,-0.09922 -0.0992,-0.09922 0.59532,-16.594336 0.59532,-17.660938 l -2.97657,2.877344 q -0.24804,-0.148828 -6.94531,-7.342187 5.2586,-4.167188 9.72344,-7.4414065 z"
       style="fill:#000000;fill-opacity:1;stroke:#000000;stroke-width:2.165;stroke-miterlimit:4;stroke-dasharray:none;stroke-opacity:1"
       id="path907" />
    <path
       d="m 192.52862,8.3538205 q 8.4336,0.9425781 8.4336,1.190625 0.0992,18.5539055 0.0992,28.3765625 v 0.198437 l -0.0992,0.198438 -8.73125,-0.297657 q 0,-0.09922 -0.0992,-0.09922 0.59531,-16.594336 0.59531,-17.660938 l -2.97656,2.877344 q -0.24805,-0.148828 -6.94531,-7.342187 5.25859,-4.167188 9.72343,-7.4414065 z"
       style="fill:#000000;fill-opacity:1;stroke:#000000;stroke-width:2.165;stroke-miterlimit:4;stroke-dasharray:none;stroke-opacity:1"
       id="path909" />
    <path
       d="m 209.96632,8.552258 h 1.5875 q 0,0.2976562 7.54062,1.5875 1.68672,0.223242 1.68672,0.992187 3.57188,6.796485 3.57188,7.242969 0,1.736328 0.29765,10.814844 -2.30683,7.242968 -2.77812,7.242968 -2.82774,1.885157 -3.175,1.885157 h -10.12031 q -3.96875,-5.109766 -3.96875,-6.052344 l -1.09141,-5.953125 q 0,-0.272852 1.88516,-4.960937 l -0.0992,-0.198438 q 1.0914,-2.80293 4.2664,-11.9062498 0.27286,-0.6945312 0.39688,-0.6945312 z m 3.67109,9.227344 q -3.67109,7.689453 -3.77031,8.135937 0.37207,0.37207 3.57188,4.960937 3.12539,-1.488281 3.57187,-1.5875 -0.29766,-6.920507 -0.29766,-8.235156 -1.19062,-1.612304 -2.97656,-3.274218 z"
       style="fill:#000000;fill-opacity:1;stroke:#000000;stroke-width:2.165;stroke-miterlimit:4;stroke-dasharray:none;stroke-opacity:1"
       id="path911" />
  </g>
  <g
     aria-label="BLUEO110"
     id="text839"
     style="font-size:50.8px;line-height:1.25;font-family:'New Super Mario Font U';-inkscape-font-specification:'New Super Mario Font U';fill:#0000ff;stroke:#0000ff;stroke-width:4.465;stroke-miterlimit:4;stroke-dasharray:none;stroke-opacity:1"
     transform="translate(-0.7815126,-40.301297)">
    <path
       d="m 26.176032,46.348151 q 8.880078,6.449219 10.343555,7.962305 -2.852539,8.433593 -2.852539,8.706445 0.694531,0.694531 3.745508,4.787304 v 0.297657 q -4.613672,8.135937 -5.382617,9.004101 L 11.466853,78.619049 Q 10.995564,76.783502 6.8035717,50.093659 Z m -8.111132,7.664648 0.892968,8.855274 q 6.548438,-1.5875 6.598047,-1.810742 0.297656,-0.744141 1.364258,-4.81211 z m 3.596679,12.005469 H 20.02447 q -0.322461,0.04961 -0.322461,0.297656 -0.148828,3.22461 -0.148828,4.787305 -0.148828,0.79375 -0.148828,0.917773 l 7.813476,-1.215429 -0.148828,-0.744141 v -0.892969 q 0,-1.066601 -0.148828,-3.299023 -3.54707,0.148828 -5.258594,0.148828 z"
       style="fill:#0000ff;stroke:#0000ff;stroke-width:4.465;stroke-miterlimit:4;stroke-dasharray:none;stroke-opacity:1"
       id="path1035" />
    <path
       d="m 52.543415,46.323346 q 0,0.173633 0.148828,0.173633 0.173633,5.035352 0.520899,22.522656 h 0.148828 l 14.808398,-5.208984 q 0,0.173633 0.173633,0.173633 l -0.496094,12.451953 q 0,0.322461 -23.043554,2.182812 Q 44.283454,76.014557 39.91783,47.6628 41.8774,47.340339 52.543415,46.323346 Z"
       style="fill:#0000ff;stroke:#0000ff;stroke-width:4.465;stroke-miterlimit:4;stroke-dasharray:none;stroke-opacity:1"
       id="path1037" />
    <path
       d="m 71.171733,46.348151 q 10.26914,2.158008 10.26914,2.480469 -0.669726,12.27832 -1.314648,21.00957 0.992187,0 7.441406,0.669726 2.480469,-22.001757 2.80293,-22.001757 9.10332,1.488281 9.10332,1.810742 -2.80293,23.76289 -3.150196,24.159765 -1.389062,1.141016 -4.613671,4.142383 -14.733985,-0.446484 -14.733985,-0.992187 l -6.126757,-7.118946 v -8.780859 q 0,-5.084961 0.173633,-15.205273 0.148828,0 0.148828,-0.173633 z"
       style="fill:#0000ff;stroke:#0000ff;stroke-width:4.465;stroke-miterlimit:4;stroke-dasharray:none;stroke-opacity:1"
       id="path1039" />
    <path
       d="m 106.4688,46.348151 q 24.58145,2.902149 24.58145,3.249414 L 128.669,58.30401 q -11.6086,-3.075781 -12.47676,-3.423047 0,0.223243 -2.55488,5.630664 h 0.17363 q 5.18418,-0.32246 11.26133,-1.016992 l 0.17363,0.347266 q -1.01699,5.754687 -1.53789,7.838281 l -9.5498,-1.364258 q 0.14882,2.827735 0.14882,4.266406 v 0.868164 l 0.17364,0.347266 q 3.175,-0.347266 12.82402,-1.041797 0.32246,1.537891 1.19063,7.689453 -0.17364,0 -0.17364,0.173633 -22.49785,-1.190625 -22.86992,-1.537891 l -3.59668,-10.244335 q 4.09277,-19.074805 4.61367,-20.488672 z"
       style="fill:#0000ff;stroke:#0000ff;stroke-width:4.465;stroke-miterlimit:4;stroke-dasharray:none;stroke-opacity:1"
       id="path1041" />
    <path
       d="m 144.0231,46.348151 q 10.86445,2.852539 11.0877,3.299024 0,0.248046 5.25859,9.921874 -4.63848,15.527735 -5.25859,16.643945 l -11.23653,2.406055 q -9.05371,-5.010547 -9.62422,-5.705078 -0.29765,-3.497461 -1.04179,-19.670117 8.55761,-5.705078 10.81484,-6.895703 z m 1.93477,8.557617 -4.63848,4.812109 q 0.59531,7.491016 0.59531,9.15293 0.17364,0 3.00137,2.083594 3.74551,-0.818555 3.74551,-1.190625 l 2.85254,-9.748242 q -1.14102,-3.472656 -1.93477,-3.472656 z"
       style="fill:#0000ff;stroke:#0000ff;stroke-width:4.465;stroke-miterlimit:4;stroke-dasharray:none;stroke-opacity:1"
       id="path1043" />
    <path
       d="m 172.5981,48.654987 q 8.43359,0.942578 8.43359,1.190625 0.0992,18.553906 0.0992,28.376562 v 0.198438 l -0.0992,0.198437 -8.73125,-0.297656 q 0,-0.09922 -0.0992,-0.09922 0.59532,-16.594336 0.59532,-17.660937 l -2.97657,2.877344 q -0.24804,-0.148829 -6.94531,-7.342188 5.2586,-4.167187 9.72344,-7.441406 z"
       style="fill:#0000ff;stroke:#0000ff;stroke-width:4.465;stroke-miterlimit:4;stroke-dasharray:none;stroke-opacity:1"
       id="path1045" />
    <path
       d="m 193.31001,48.654987 q 8.4336,0.942578 8.4336,1.190625 0.0992,18.553906 0.0992,28.376562 v 0.198438 l -0.0992,0.198437 -8.73125,-0.297656 q 0,-0.09922 -0.0992,-0.09922 0.59531,-16.594336 0.59531,-17.660937 l -2.97656,2.877344 q -0.24805,-0.148829 -6.94531,-7.342188 5.25859,-4.167187 9.72343,-7.441406 z"
       style="fill:#0000ff;stroke:#0000ff;stroke-width:4.465;stroke-miterlimit:4;stroke-dasharray:none;stroke-opacity:1"
       id="path1047" />
    <path
       d="m 210.74771,48.853425 h 1.5875 q 0,0.297656 7.54062,1.587499 1.68672,0.223243 1.68672,0.992188 3.57188,6.796484 3.57188,7.242969 0,1.736328 0.29765,10.814843 -2.30683,7.242969 -2.77812,7.242969 -2.82774,1.885156 -3.175,1.885156 h -10.12031 q -3.96875,-5.109765 -3.96875,-6.052344 l -1.09141,-5.953124 q 0,-0.272852 1.88516,-4.960938 l -0.0992,-0.198437 q 1.0914,-2.80293 4.2664,-11.90625 0.27286,-0.694531 0.39688,-0.694531 z m 3.67109,9.227343 q -3.67109,7.689453 -3.77031,8.135938 0.37207,0.37207 3.57188,4.960937 3.12539,-1.488281 3.57187,-1.5875 -0.29766,-6.920508 -0.29766,-8.235156 -1.19062,-1.612305 -2.97656,-3.274219 z"
       style="fill:#0000ff;stroke:#0000ff;stroke-width:4.465;stroke-miterlimit:4;stroke-dasharray:none;stroke-opacity:1"
       id="path1049" />
  </g>
  <g
     aria-label="BLUEO110"
     id="text835"
     style="font-size:50.8px;line-height:1.25;font-family:'New Super Mario Font U';-inkscape-font-specification:'New Super Mario Font U';fill:url(#linearGradient1003);fill-opacity:1;stroke-width:0.264583">
    <path
       d="m 25.394642,6.0469846 q 8.880078,6.4492184 10.343555,7.9623044 -2.852539,8.433594 -2.852539,8.706445 0.694531,0.694532 3.745507,4.787305 v 0.297656 q -4.613671,8.135938 -5.382617,9.004102 L 10.685463,38.317883 Q 10.214174,36.482336 6.0221815,9.7924923 Z m -8.111133,7.6646484 0.892969,8.855273 q 6.548438,-1.5875 6.598047,-1.810742 0.297656,-0.744141 1.364258,-4.812109 z m 3.59668,12.005468 H 19.24308 q -0.322461,0.04961 -0.322461,0.297657 -0.148828,3.224609 -0.148828,4.787304 -0.148828,0.79375 -0.148828,0.917774 l 7.813476,-1.21543 -0.148828,-0.744141 v -0.892968 q 0,-1.066602 -0.148828,-3.299024 -3.54707,0.148828 -5.258594,0.148828 z"
       style="fill:url(#linearGradient1003);fill-opacity:1;stroke-width:0.264583"
       id="path914" />
    <path
       d="m 51.762025,6.0221799 q 0,0.1736328 0.148828,0.1736328 0.173633,5.0353513 0.520899,22.5226563 h 0.148828 l 14.808398,-5.208985 q 0,0.173633 0.173633,0.173633 L 67.066517,36.13507 q 0,0.322461 -23.043554,2.182813 Q 43.502064,35.71339 39.136439,7.361633 41.09601,7.0391721 51.762025,6.0221799 Z"
       style="fill:url(#linearGradient1003);fill-opacity:1;stroke-width:0.264583"
       id="path916" />
    <path
       d="m 70.390343,6.0469846 q 10.26914,2.1580078 10.26914,2.4804687 -0.669727,12.2783197 -1.314648,21.0095697 0.992187,0 7.441406,0.669727 2.480468,-22.0017576 2.802929,-22.0017576 9.103321,1.4882812 9.103321,1.8107426 -2.80293,23.76289 -3.150196,24.159765 -1.389062,1.141015 -4.613672,4.142383 Q 76.194639,37.871398 76.194639,37.325695 L 70.067882,30.20675 v -8.780859 q 0,-5.084961 0.173632,-15.2052736 0.148829,0 0.148829,-0.1736328 z"
       style="fill:url(#linearGradient1003);fill-opacity:1;stroke-width:0.264583"
       id="path918" />
    <path
       d="m 105.68741,6.0469846 q 24.58145,2.9021484 24.58145,3.249414 l -2.38125,8.7064454 q -11.6086,-3.075781 -12.47676,-3.423047 0,0.223242 -2.55488,5.630664 h 0.17363 q 5.18418,-0.322461 11.26133,-1.016992 l 0.17363,0.347265 q -1.01699,5.754688 -1.53789,7.838282 l -9.5498,-1.364258 q 0.14882,2.827734 0.14882,4.266406 v 0.868164 l 0.17364,0.347266 q 3.175,-0.347266 12.82402,-1.041797 0.32246,1.53789 1.19062,7.689453 -0.17363,0 -0.17363,0.173633 -22.49785,-1.190625 -22.86992,-1.537891 l -3.59668,-10.244336 q 4.09277,-19.0748042 4.61367,-20.4886714 z"
       style="fill:url(#linearGradient1003);fill-opacity:1;stroke-width:0.264583"
       id="path920" />
    <path
       d="m 143.24171,6.0469846 q 10.86445,2.852539 11.0877,3.2990234 0,0.2480468 5.25859,9.921875 -4.63848,15.527734 -5.25859,16.643945 l -11.23653,2.406055 q -9.05371,-5.010547 -9.62422,-5.705079 -0.29765,-3.49746 -1.04179,-19.670116 8.55761,-5.7050784 10.81484,-6.8957034 z m 1.93477,8.5576174 -4.63848,4.812109 q 0.59531,7.491015 0.59531,9.152929 0.17364,0 3.00137,2.083594 3.74551,-0.818554 3.74551,-1.190625 l 2.85254,-9.748242 q -1.14102,-3.472656 -1.93477,-3.472656 z"
       style="fill:url(#linearGradient1003);fill-opacity:1;stroke-width:0.264583"
       id="path922" />
    <path
       d="m 171.81671,8.3538205 q 8.43359,0.9425781 8.43359,1.190625 0.0992,18.5539055 0.0992,28.3765625 v 0.198437 l -0.0992,0.198438 -8.73125,-0.297657 q 0,-0.09922 -0.0992,-0.09922 0.59532,-16.594336 0.59532,-17.660938 l -2.97657,2.877344 q -0.24804,-0.148828 -6.94531,-7.342187 5.2586,-4.167188 9.72344,-7.4414065 z"
       style="fill:url(#linearGradient1003);fill-opacity:1;stroke-width:0.264583"
       id="path924" />
    <path
       d="m 192.52862,8.3538205 q 8.4336,0.9425781 8.4336,1.190625 0.0992,18.5539055 0.0992,28.3765625 v 0.198437 l -0.0992,0.198438 -8.73125,-0.297657 q 0,-0.09922 -0.0992,-0.09922 0.59531,-16.594336 0.59531,-17.660938 l -2.97656,2.877344 q -0.24805,-0.148828 -6.94531,-7.342187 5.25859,-4.167188 9.72343,-7.4414065 z"
       style="fill:url(#linearGradient1003);fill-opacity:1;stroke-width:0.264583"
       id="path926" />
    <path
       d="m 209.96632,8.552258 h 1.5875 q 0,0.2976562 7.54062,1.5875 1.68672,0.223242 1.68672,0.992187 3.57188,6.796485 3.57188,7.242969 0,1.736328 0.29765,10.814844 -2.30683,7.242968 -2.77812,7.242968 -2.82774,1.885157 -3.175,1.885157 h -10.12031 q -3.96875,-5.109766 -3.96875,-6.052344 l -1.09141,-5.953125 q 0,-0.272852 1.88516,-4.960937 l -0.0992,-0.198438 q 1.0914,-2.80293 4.2664,-11.9062498 0.27286,-0.6945312 0.39688,-0.6945312 z m 3.67109,9.227344 q -3.67109,7.689453 -3.77031,8.135937 0.37207,0.37207 3.57188,4.960937 3.12539,-1.488281 3.57187,-1.5875 -0.29766,-6.920507 -0.29766,-8.235156 -1.19062,-1.612304 -2.97656,-3.274218 z"
       style="fill:url(#linearGradient1003);fill-opacity:1;stroke-width:0.264583"
       id="path928" />
  </g>
  <path
     id="path1093"
     style="font-size:50.8px;line-height:1.25;font-family:'New Super Mario Font U';-inkscape-font-specification:'New Super Mario Font U';fill:url(#linearGradient1128);fill-opacity:1;stroke-width:0.264583"
     d="m 143.24186,6.0469103 c -1.50482,0.79375 -5.10977,3.0923176 -10.81485,6.8957027 0.4961,10.781771 0.84337,17.338477 1.0418,19.670117 0.38034,0.463021 3.58841,2.364714 9.62422,5.705078 l 10.13427,-2.169893 5.70714,-18.086752 C 155.90899,12.484556 154.32955,9.4995534 154.32955,9.3459337 154.18072,9.0482774 150.48483,7.948603 143.24186,6.0469103 Z m -15.34015,2.7920764 -2.66857,8.4568483 c 0.88088,0.234704 1.65404,0.441825 2.65462,0.706934 l 2.38125,-8.7064447 c 0,-0.0704 -0.85191,-0.2294334 -2.3673,-0.4573376 z m 17.27491,5.7655403 3.62149,1.63711 c 0.52916,0 1.17408,1.157552 1.93476,3.472656 l -2.85254,9.748242 c 0,0.248047 -1.2485,0.644922 -3.7455,1.190625 -1.88516,-1.389063 -2.88561,-2.083594 -3.00137,-2.083594 0,-1.107942 -0.19844,-4.158919 -0.59531,-9.152929 z m -20.79201,5.380032 -2.29547,7.274492 0.83768,0.11989 c 0.33271,-1.330846 0.8215,-3.81699 1.45779,-7.394382 z m 2.13889,10.470163 c -2.12214,0.15275 -3.92141,0.288441 -5.57382,0.415994 l -2.1978,6.963918 c 2.60861,0.148881 5.44847,0.306406 8.78861,0.483174 0,-0.115755 0.0579,-0.173633 0.17363,-0.173633 -0.57878,-4.101041 -0.97565,-6.664192 -1.19062,-7.689453 z" />
  <path
     id="path1052"
     style="font-size:50.8px;line-height:1.25;font-family:'New Super Mario Font U';-inkscape-font-specification:'New Super Mario Font U';fill:url(#linearGradient1085);fill-opacity:1;stroke-width:0.264583"
     d="m 70.390491,6.0469103 c 0,0.1157552 -0.04961,0.1736328 -0.148828,0.1736328 C 70.125908,12.967418 70.06803,18.035842 70.06803,21.425816 v 8.78086 l 6.126758,7.118945 c 0,0.361386 4.857892,0.689869 14.550532,0.985985 l 7.346839,-23.280232 c 0.201142,-1.680659 0.375637,-3.109523 0.60048,-5.015714 0,-0.2149737 -3.03444,-0.8185545 -9.10332,-1.8107419 -0.214974,0 -1.149284,7.3339189 -2.80293,22.0017579 -4.299479,-0.446485 -6.779948,-0.669727 -7.441406,-0.669727 0.429948,-5.820833 0.868167,-12.824023 1.314648,-21.00957 0,-0.214974 -3.423046,-1.0417969 -10.26914,-2.4804687 z M 67.389124,23.50941 60.734234,25.850351 57.146857,37.21865 c 6.57039,-0.579086 9.919806,-0.943065 9.919806,-1.083654 l 0.496094,-12.451953 c -0.115756,0 -0.173633,-0.05788 -0.173633,-0.173633 z" />
</svg>
